<mxfile host="app.diagrams.net" modified="2023-07-16T09:39:33.856Z" agent="Mozilla/5.0 (Windows NT 10.0; Win64; x64) AppleWebKit/537.36 (KHTML, like Gecko) Chrome/114.0.0.0 Safari/537.36" version="21.6.2" etag="f5qN6K73b6zRI1_mevin" type="github">
  <diagram name="Page-1" id="_ID0e7Z1rO3IswP40zcr">
    <mxGraphModel>
      <root>
        <mxCell id="0" />
        <mxCell id="1" parent="0" />
      </root>
    </mxGraphModel>
  </diagram>
</mxfile>
